<svg style="object-fit:cover" id="my-svg" version="1" baseProfile="full" width="100%" height="100%" viewBox="0 0 1261 965" xmlns="http://www.w3.org/2000/svg"><rect width="1261" height="965" fill="#faffff"/><path transform="scale(1, 1)" style="transform-origin: center center 0px;" d="M 0,965 V 0,579 C 12.394251952375168,498.75188339084673 24.788503904750335,418.50376678169346 33,483 C 41.211496095249665,547.4962332183065 45.24023633337382,756.7368162640727 53,767 C 60.75976366662618,777.2631837359273 72.25055076175435,588.5489681620154 84,486 C 95.74944923824565,383.4510318379846 107.7575606196088,367.06731108786573 116,442 C 124.2424393803912,516.9326889121343 128.7192067598105,683.1817874865218 138,710 C 147.2807932401895,736.8182125134782 161.36561234114913,624.2055389660472 173,631 C 184.63438765885087,637.7944610339528 193.81834387559297,763.9960566492889 202,779 C 210.18165612440703,794.0039433507111 217.36101215647915,697.8102344367973 225,687 C 232.63898784352085,676.1897655632027 240.7376074984905,750.7630056035225 253,713 C 265.2623925015095,675.2369943964775 281.688557849559,525.1377431491129 291,513 C 300.311442150441,500.8622568508871 302.5081611032736,626.6860218000255 310,600 C 317.4918388967264,573.3139781999745 330.27879773734657,394.11816965078515 342,390 C 353.72120226265343,385.88183034921485 364.37664794734013,556.8412995968339 373,600 C 381.62335205265987,643.1587004031661 388.214610473293,558.5166319618797 398,597 C 407.785389526707,635.4833680381203 420.7649101594877,797.0921725556472 431,774 C 441.2350898405123,750.9078274443528 448.725748888756,543.1146778155312 458,475 C 467.274251111244,406.8853221844688 478.3320942854881,478.44911618222795 489,548 C 499.6679057145119,617.550883817772 509.9458739692916,685.088857455557 518,677 C 526.0541260307084,668.911142544443 531.8844098373457,585.1954539955435 540,603 C 548.1155901626543,620.8045460044565 558.5164866813258,740.129326562269 569,689 C 579.4835133186742,637.870673437731 590.0496434373512,416.28723975538054 599,392 C 607.9503565626488,367.71276024461946 615.2849395692698,540.7217144162088 626,594 C 636.7150604307302,647.2782855837912 650.8105982855697,580.8259025797839 661,620 C 671.1894017144303,659.1740974202161 677.4726672884516,803.9746752646553 685,769 C 692.5273327115484,734.0253247353447 701.2987325606241,519.275396361595 711,506 C 720.7012674393759,492.72460363840503 731.3324024690517,680.9237392889645 742,670 C 752.6675975309483,659.0762607110355 763.3716575631687,449.02964648254675 774,421 C 784.6283424368313,392.97035351745325 795.1809672782733,546.9576747808488 803,623 C 810.8190327217267,699.0423252191512 815.904473323738,697.1396543940577 826,701 C 836.095526676262,704.8603456059423 851.2011394267745,714.4837076429199 861,677 C 870.7988605732255,639.5162923570801 875.290968969164,554.9255150342623 885,546 C 894.709031030836,537.0744849657377 909.6349846965697,603.8142322200312 920,567 C 930.3650153034303,530.1857677799688 936.1690922445567,389.81755608561326 944,403 C 951.8309077554433,416.18244391438674 961.6886463252036,582.9155434375158 971,621 C 980.3113536747964,659.0844565624842 989.0763224546287,568.5202701643234 998,518 C 1006.9236775453713,467.47972983567666 1016.0060638562818,457.00337590519075 1027,518 C 1037.9939361437182,578.9966240948092 1050.8994221202438,711.4662262149135 1061,674 C 1071.1005778797562,636.5337737850865 1078.3962476627432,429.13171923515506 1087,391 C 1095.6037523372568,352.86828076484494 1105.5155872287837,484.00689684446616 1117,548 C 1128.4844127712163,611.9931031555338 1141.5414034221214,608.8406933869801 1150,666 C 1158.4585965778786,723.1593066130199 1162.3187990827303,840.6303296076136 1170,757 C 1177.6812009172697,673.3696703923864 1189.183400246957,388.6379881825656 1200,390 C 1210.816599753043,391.3620118174344 1220.9475999294407,678.8177176621241 1231,758 C 1241.0524000705593,837.1822823378759 1251.0262000352795,708.091141168938 1261,579 C 1261,579 1261,965 1261,965 Z" stroke="none" stroke-width="0" fill="#feffff" class="transition-all duration-300 ease-in-out delay-150"/><path transform="scale(1, 1)" style="transform-origin: center center 0px;" d="M 0,965 V 0,868 C 9.942751403657503,948.9964811160492 19.885502807315007,1029.9929622320983 31,1045 C 42.11449719268499,1060.0070377679017 54.400740174397455,1009.0246321876558 62,938 C 69.59925982560254,866.9753678123442 72.5115364950952,775.9085090172779 80,712 C 87.4884635049048,648.0914909827221 99.5531138452217,611.3413317432328 112,684 C 124.4468861547783,756.6586682567672 137.27600812401803,938.7261640097906 146,990 C 154.72399187598197,1041.2738359902094 159.34285365870605,961.7540122176048 167,883 C 174.65714634129395,804.2459877823952 185.3525772411579,726.2577871197906 196,724 C 206.6474227588421,721.7422128802094 217.24683737666246,795.2148393032329 228,800 C 238.75316262333754,804.7851606967671 249.66007325219226,740.8828556672773 259,723 C 268.33992674780774,705.1171443327227 276.11286961456847,733.2537380276575 285,707 C 293.88713038543153,680.7462619723425 303.8884482895339,600.1021922220926 313,661 C 322.1115517104661,721.8978077779074 330.33333722729594,924.3374930839717 341,973 C 351.66666277270406,1021.6625069160283 364.77820280128236,916.5478354420209 375,879 C 385.22179719871764,841.4521645579791 392.55385156757455,871.471165147945 400,826 C 407.44614843242545,780.528834852055 415.0063909284196,659.5675039661986 425,656 C 434.9936090715804,652.4324960338014 447.42058471874736,766.2588189872604 457,786 C 466.57941528125264,805.7411810127396 473.3112701965908,731.3972200847597 482,721 C 490.6887298034092,710.6027799152403 501.3343344948896,764.1523006737007 513,850 C 524.6656655051104,935.8476993262993 537.3513918238507,1053.993577220437 546,1045 C 554.6486081761493,1036.006422779563 559.2600982097075,899.8733904445505 568,901 C 576.7399017902925,902.1266095554495 589.6082153373189,1040.5128610013608 600,1079 C 610.3917846626811,1117.4871389986392 618.3070404410163,1056.0751655500064 628,949 C 637.6929595589837,841.9248344499936 649.1636228986158,689.1864767986133 659,693 C 668.8363771013842,696.8135232013867 677.0384679645204,857.1789272555402 686,894 C 694.9615320354796,930.8210727444598 704.6825052433028,844.0978141792255 714,790 C 723.3174947566972,735.9021858207745 732.2315110622679,714.4298160275579 743,669 C 753.7684889377321,623.5701839724421 766.3914505076253,554.1829217105429 777,661 C 787.6085494923747,767.8170782894571 796.2026869072306,1050.8384971302703 805,1057 C 813.7973130927694,1063.1615028697297 822.797801863452,792.4630897683755 831,724 C 839.202198136548,655.5369102316245 846.6061056389607,789.3091437962274 855,814 C 863.3938943610393,838.6908562037726 872.777775580705,754.3003350467146 884,699 C 895.222224419295,643.6996649532854 908.2827920382189,617.4895160169139 918,653 C 927.7172079617811,688.5104839830861 934.0910562664193,785.74160088563 942,891 C 949.9089437335807,996.25839911437 959.3529828961039,1109.5440804405666 970,1052 C 980.6470171038961,994.4559195594335 992.497012149165,766.0820773521034 1002,768 C 1011.502987850835,769.9179226478966 1018.6589685072361,1002.1276101510191 1027,1055 C 1035.341031492764,1107.872389848981 1044.8671138218906,981.4074820438201 1056,915 C 1067.1328861781094,848.5925179561799 1079.8725762052015,842.2424616737007 1090,866 C 1100.1274237947985,889.7575383262993 1107.6425813573035,943.6226712613769 1117,963 C 1126.3574186426965,982.3773287386231 1137.5570983655841,967.2668532807913 1148,1013 C 1158.4429016344159,1058.7331467192087 1168.129025180359,1165.3099156154578 1176,1077 C 1183.870974819641,988.6900843845422 1189.92680091298,705.4934842573767 1199,676 C 1208.07319908702,646.5065157426233 1220.16377116772,870.7161473550351 1231,945 C 1241.83622883228,1019.2838526449649 1251.41811441614,943.6419263224825 1261,868 C 1261,868 1261,965 1261,965 Z" stroke="none" stroke-width="0" fill="#fffefe" class="transition-all duration-300 ease-in-out delay-150"/></svg>