<svg width="1920" height="240" viewBox="0 0 1920 240" xmlns="http://www.w3.org/2000/svg"><path d="M1920,240C1601,267.8333333333333,284.5,279,0,240C-284.5,201,142.33333333333331,31.833333333333332,213,6C283.6666666666667,-19.833333333333332,353.6666666666667,67.66666666666667,424,85C494.3333333333333,102.33333333333333,564.6666666666666,116.5,635,110C705.3333333333334,103.5,774.8333333333334,38.833333333333336,846,46C917.1666666666666,53.166666666666664,991.5,143,1062,153C1132.5,163,1198.3333333333333,130.66666666666666,1269,106C1339.6666666666667,81.33333333333333,1413.3333333333333,19,1486,5C1558.6666666666667,-9,1633.6666666666667,10.666666666666666,1705,22C1776.3333333333333,33.333333333333336,1878.1666666666667,36.666666666666664,1914,73C1949.8333333333333,109.33333333333334,2239,212.16666666666666,1920,240C1601,267.8333333333333,284.5,279,0,240" fill="#ffffff"/></svg>