<svg width="1920" height="1080" viewBox="0 0 1920 1080" xmlns="http://www.w3.org/2000/svg"><path d="M1920,1080C1600.1666666666667,1132.5,286.1666666666667,1158.8333333333333,0,1080C-286.1666666666667,1001.1666666666666,133.16666666666669,676,203,607C272.8333333333333,538,347.1666666666667,620.8333333333334,419,666C490.8333333333333,711.1666666666666,562,877.5,634,878C706,878.5,779.8333333333334,663.1666666666666,851,669C922.1666666666666,674.8333333333334,990.3333333333334,919.1666666666666,1061,913C1131.6666666666667,906.8333333333334,1204.6666666666667,661.3333333333334,1275,632C1345.3333333333333,602.6666666666666,1412.6666666666667,702,1483,737C1553.3333333333333,772,1624.3333333333333,837.3333333333334,1697,842C1769.6666666666667,846.6666666666666,1881.8333333333333,725.3333333333334,1919,765C1956.1666666666667,804.6666666666666,2239.8333333333335,1027.5,1920,1080C1600.1666666666667,1132.5,286.1666666666667,1158.8333333333333,0,1080" fill="#feffff"/></svg>