<svg width="1920" height="1080" viewBox="0 0 1920 1080" xmlns="http://www.w3.org/2000/svg"><path d="M1920,1080C1600.8333333333333,1116.3333333333333,285.6666666666667,1108,0,1080C-285.6666666666667,1052,135.83333333333331,929,206,912C276.1666666666667,895,350.3333333333333,964.5,421,978C491.6666666666667,991.5,559.5,998,630,993C700.5,988,772.1666666666666,938.8333333333334,844,948C915.8333333333334,957.1666666666666,988.8333333333334,1060.6666666666667,1061,1048C1133.1666666666667,1035.3333333333333,1206.3333333333333,940.3333333333334,1277,872C1347.6666666666667,803.6666666666666,1415.1666666666667,655.8333333333334,1485,638C1554.8333333333333,620.1666666666666,1624.3333333333333,727.6666666666666,1696,765C1767.6666666666667,802.3333333333334,1877.6666666666667,809.5,1915,862C1952.3333333333333,914.5,2239.1666666666665,1043.6666666666667,1920,1080C1600.8333333333333,1116.3333333333333,285.6666666666667,1108,0,1080" fill="#feffff"/></svg>