<svg id="visual" viewBox="0 0 1920 150" width="1920" height="150" xmlns="http://www.w3.org/2000/svg" xmlns:xlink="http://www.w3.org/1999/xlink" version="1.1"><path d="M0 106L29.2 106.2C58.3 106.3 116.7 106.7 174.8 108.8C233 111 291 115 349.2 114.5C407.3 114 465.7 109 523.8 106.2C582 103.3 640 102.7 698.2 104.2C756.3 105.7 814.7 109.3 872.8 112.3C931 115.3 989 117.7 1047.2 117.3C1105.3 117 1163.7 114 1221.8 113.7C1280 113.3 1338 115.7 1396.2 117.3C1454.3 119 1512.7 120 1570.8 120C1629 120 1687 119 1745.2 118.3C1803.3 117.7 1861.7 117.3 1890.8 117.2L1920 117L1920 151L1890.8 151C1861.7 151 1803.3 151 1745.2 151C1687 151 1629 151 1570.8 151C1512.7 151 1454.3 151 1396.2 151C1338 151 1280 151 1221.8 151C1163.7 151 1105.3 151 1047.2 151C989 151 931 151 872.8 151C814.7 151 756.3 151 698.2 151C640 151 582 151 523.8 151C465.7 151 407.3 151 349.2 151C291 151 233 151 174.8 151C116.7 151 58.3 151 29.2 151L0 151Z" fill="#ffffff" stroke-linecap="round" stroke-linejoin="miter"></path></svg>