<svg id="visual" viewBox="0 0 2000 600" width="2000" height="600" xmlns="http://www.w3.org/2000/svg" xmlns:xlink="http://www.w3.org/1999/xlink" version="1.1"><path d="M0 335L27.8 335.8C55.7 336.7 111.3 338.3 166.8 366.8C222.3 395.3 277.7 450.7 333.2 466.3C388.7 482 444.3 458 500 446C555.7 434 611.3 434 666.8 417.8C722.3 401.7 777.7 369.3 833.2 378.2C888.7 387 944.3 437 1000 436.5C1055.7 436 1111.3 385 1166.8 370.3C1222.3 355.7 1277.7 377.3 1333.2 405.5C1388.7 433.7 1444.3 468.3 1500 481.2C1555.7 494 1611.3 485 1666.8 473.3C1722.3 461.7 1777.7 447.3 1833.2 429.2C1888.7 411 1944.3 389 1972.2 378L2000 367L2000 601L1972.2 601C1944.3 601 1888.7 601 1833.2 601C1777.7 601 1722.3 601 1666.8 601C1611.3 601 1555.7 601 1500 601C1444.3 601 1388.7 601 1333.2 601C1277.7 601 1222.3 601 1166.8 601C1111.3 601 1055.7 601 1000 601C944.3 601 888.7 601 833.2 601C777.7 601 722.3 601 666.8 601C611.3 601 555.7 601 500 601C444.3 601 388.7 601 333.2 601C277.7 601 222.3 601 166.8 601C111.3 601 55.7 601 27.8 601L0 601Z" fill="#FFFFFF" stroke-linecap="round" stroke-linejoin="miter"></path></svg>