<svg id="visual" viewBox="0 0 2000 600" width="2000" height="600" xmlns="http://www.w3.org/2000/svg" xmlns:xlink="http://www.w3.org/1999/xlink" version="1.1"><path d="M0 375L11.5 328.5C23 282 46 189 69 198.5C92 208 115 320 138 343.8C161 367.7 184 303.3 207 316.3C230 329.3 253 419.7 276 408.5C299 397.3 322 284.7 345 220.5C368 156.3 391 140.7 414 163.3C437 186 460 247 483 263C506 279 529 250 552 231.8C575 213.7 598 206.3 621 189.3C644 172.3 667 145.7 690 150C713 154.3 736 189.7 759 189.3C782 189 805 153 828 165.8C851 178.7 874 240.3 897 289.3C920 338.3 943 374.7 965.8 358.3C988.7 342 1011.3 273 1034.2 232.7C1057 192.3 1080 180.7 1103 235C1126 289.3 1149 409.7 1172 464.5C1195 519.3 1218 508.7 1241 492C1264 475.3 1287 452.7 1310 418.7C1333 384.7 1356 339.3 1379 342.5C1402 345.7 1425 397.3 1448 376.3C1471 355.3 1494 261.7 1517 265.8C1540 270 1563 372 1586 371.7C1609 371.3 1632 268.7 1655 245.2C1678 221.7 1701 277.3 1724 327.8C1747 378.3 1770 423.7 1793 411.8C1816 400 1839 331 1862 270.3C1885 209.7 1908 157.3 1931 203C1954 248.7 1977 392.3 1988.5 464.2L2000 536L2000 601L1988.5 601C1977 601 1954 601 1931 601C1908 601 1885 601 1862 601C1839 601 1816 601 1793 601C1770 601 1747 601 1724 601C1701 601 1678 601 1655 601C1632 601 1609 601 1586 601C1563 601 1540 601 1517 601C1494 601 1471 601 1448 601C1425 601 1402 601 1379 601C1356 601 1333 601 1310 601C1287 601 1264 601 1241 601C1218 601 1195 601 1172 601C1149 601 1126 601 1103 601C1080 601 1057 601 1034.2 601C1011.3 601 988.7 601 965.8 601C943 601 920 601 897 601C874 601 851 601 828 601C805 601 782 601 759 601C736 601 713 601 690 601C667 601 644 601 621 601C598 601 575 601 552 601C529 601 506 601 483 601C460 601 437 601 414 601C391 601 368 601 345 601C322 601 299 601 276 601C253 601 230 601 207 601C184 601 161 601 138 601C115 601 92 601 69 601C46 601 23 601 11.5 601L0 601Z" fill="#FFFFFF" stroke-linecap="round" stroke-linejoin="miter"></path></svg>