<svg id="visual" viewBox="0 0 1920 150" width="1920" height="150" xmlns="http://www.w3.org/2000/svg" xmlns:xlink="http://www.w3.org/1999/xlink" version="1.1"><path d="M0 122L17.8 120.2C35.7 118.3 71.3 114.7 106.8 114.2C142.3 113.7 177.7 116.3 213.2 116.2C248.7 116 284.3 113 320 113.2C355.7 113.3 391.3 116.7 426.8 118.7C462.3 120.7 497.7 121.3 533.2 120.2C568.7 119 604.3 116 640 116C675.7 116 711.3 119 746.8 118.7C782.3 118.3 817.7 114.7 853.2 113C888.7 111.3 924.3 111.7 960 113.2C995.7 114.7 1031.3 117.3 1066.8 117.5C1102.3 117.7 1137.7 115.3 1173.2 112.8C1208.7 110.3 1244.3 107.7 1280 109.2C1315.7 110.7 1351.3 116.3 1386.8 116.8C1422.3 117.3 1457.7 112.7 1493.2 110.3C1528.7 108 1564.3 108 1600 108.3C1635.7 108.7 1671.3 109.3 1706.8 110.7C1742.3 112 1777.7 114 1813.2 114.7C1848.7 115.3 1884.3 114.7 1902.2 114.3L1920 114L1920 151L1902.2 151C1884.3 151 1848.7 151 1813.2 151C1777.7 151 1742.3 151 1706.8 151C1671.3 151 1635.7 151 1600 151C1564.3 151 1528.7 151 1493.2 151C1457.7 151 1422.3 151 1386.8 151C1351.3 151 1315.7 151 1280 151C1244.3 151 1208.7 151 1173.2 151C1137.7 151 1102.3 151 1066.8 151C1031.3 151 995.7 151 960 151C924.3 151 888.7 151 853.2 151C817.7 151 782.3 151 746.8 151C711.3 151 675.7 151 640 151C604.3 151 568.7 151 533.2 151C497.7 151 462.3 151 426.8 151C391.3 151 355.7 151 320 151C284.3 151 248.7 151 213.2 151C177.7 151 142.3 151 106.8 151C71.3 151 35.7 151 17.8 151L0 151Z" fill="#ffffff" stroke-linecap="round" stroke-linejoin="miter"></path></svg>