<svg id="visual" viewBox="0 0 900 600" width="900" height="600" xmlns="http://www.w3.org/2000/svg" xmlns:xlink="http://www.w3.org/1999/xlink" version="1.1"><path d="M0 406L21.5 417.5C43 429 86 452 128.8 448.8C171.7 445.7 214.3 416.3 257.2 394C300 371.7 343 356.3 385.8 349.2C428.7 342 471.3 343 514.2 368.2C557 393.3 600 442.7 642.8 466.2C685.7 489.7 728.3 487.3 771.2 473.2C814 459 857 433 878.5 420L900 407L900 601L878.5 601C857 601 814 601 771.2 601C728.3 601 685.7 601 642.8 601C600 601 557 601 514.2 601C471.3 601 428.7 601 385.8 601C343 601 300 601 257.2 601C214.3 601 171.7 601 128.8 601C86 601 43 601 21.5 601L0 601Z" fill="#FFFFFF" stroke-linecap="round" stroke-linejoin="miter"></path></svg>