<svg id="visual" viewBox="0 0 1920 150" width="1920" height="150" xmlns="http://www.w3.org/2000/svg" xmlns:xlink="http://www.w3.org/1999/xlink" version="1.1"><path d="M0 106L10.3 107.8C20.7 109.7 41.3 113.3 62 114.8C82.7 116.3 103.3 115.7 124 120.7C144.7 125.7 165.3 136.3 186 135C206.7 133.7 227.3 120.3 248 114.7C268.7 109 289.3 111 310 114C330.7 117 351.3 121 372 125.5C392.7 130 413.3 135 433.8 137C454.3 139 474.7 138 495.2 133.7C515.7 129.3 536.3 121.7 557 122.3C577.7 123 598.3 132 619 131.2C639.7 130.3 660.3 119.7 681 114.5C701.7 109.3 722.3 109.7 743 112.7C763.7 115.7 784.3 121.3 805 127.2C825.7 133 846.3 139 867 139.2C887.7 139.3 908.3 133.7 929 129.5C949.7 125.3 970.3 122.7 991 120.7C1011.7 118.7 1032.3 117.3 1053 115.8C1073.7 114.3 1094.3 112.7 1115 108.5C1135.7 104.3 1156.3 97.7 1177 100.2C1197.7 102.7 1218.3 114.3 1239 121.3C1259.7 128.3 1280.3 130.7 1301 130C1321.7 129.3 1342.3 125.7 1363 127C1383.7 128.3 1404.3 134.7 1424.8 130.3C1445.3 126 1465.7 111 1486.2 109.3C1506.7 107.7 1527.3 119.3 1548 118.7C1568.7 118 1589.3 105 1610 98C1630.7 91 1651.3 90 1672 90.8C1692.7 91.7 1713.3 94.3 1734 103C1754.7 111.7 1775.3 126.3 1796 135C1816.7 143.7 1837.3 146.3 1858 143C1878.7 139.7 1899.3 130.3 1909.7 125.7L1920 121L1920 151L1909.7 151C1899.3 151 1878.7 151 1858 151C1837.3 151 1816.7 151 1796 151C1775.3 151 1754.7 151 1734 151C1713.3 151 1692.7 151 1672 151C1651.3 151 1630.7 151 1610 151C1589.3 151 1568.7 151 1548 151C1527.3 151 1506.7 151 1486.2 151C1465.7 151 1445.3 151 1424.8 151C1404.3 151 1383.7 151 1363 151C1342.3 151 1321.7 151 1301 151C1280.3 151 1259.7 151 1239 151C1218.3 151 1197.7 151 1177 151C1156.3 151 1135.7 151 1115 151C1094.3 151 1073.7 151 1053 151C1032.3 151 1011.7 151 991 151C970.3 151 949.7 151 929 151C908.3 151 887.7 151 867 151C846.3 151 825.7 151 805 151C784.3 151 763.7 151 743 151C722.3 151 701.7 151 681 151C660.3 151 639.7 151 619 151C598.3 151 577.7 151 557 151C536.3 151 515.7 151 495.2 151C474.7 151 454.3 151 433.8 151C413.3 151 392.7 151 372 151C351.3 151 330.7 151 310 151C289.3 151 268.7 151 248 151C227.3 151 206.7 151 186 151C165.3 151 144.7 151 124 151C103.3 151 82.7 151 62 151C41.3 151 20.7 151 10.3 151L0 151Z" fill="#ffffff" stroke-linecap="round" stroke-linejoin="miter"></path></svg>